<?xml version="1.0" encoding="UTF-8"?>
<!-- Generator: Adobe Illustrator 16.0.0, SVG Export Plug-In . SVG Version: 6.00 Build 0)  -->
<!DOCTYPE svg PUBLIC "-//W3C//DTD SVG 1.1//EN" "http://www.w3.org/Graphics/SVG/1.1/DTD/svg11.dtd">
<svg version="1.1" id="Cognitect_Logo_Horizontal_Black" xmlns="http://www.w3.org/2000/svg" xmlns:xlink="http://www.w3.org/1999/xlink" x="0px" y="0px" width="804.081px" height="230.49px" viewBox="0 0 804.081 230.49" enable-background="new 0 0 804.081 230.49" xml:space="preserve">
<g id="Gonitect_Logo">
	<g id="Cognitect_Text">
		<path d="M175.713,115.327c0-35.467,13.86-55.034,40.766-55.034c11.006,0,19.976,4.075,25.887,9.376l-6.523,13.045    c-5.503-4.484-10.19-7.338-17.732-7.338c-15.084,0-22.422,10.396-22.422,39.136c0,30.779,7.134,40.97,22.218,40.97    c8.356,0,12.842-3.262,18.346-8.152l6.521,12.842c-6.932,6.114-15.288,10.189-27.518,10.189    C188.349,170.36,175.713,150.591,175.713,115.327z"/>
		<path d="M244.605,115.327c0-35.059,14.269-55.034,39.95-55.034c25.071,0,39.339,19.159,39.339,54.627    c0,36.28-14.675,55.44-39.949,55.44C258.67,170.36,244.605,150.386,244.605,115.327z M303.921,115.53    c0-32.001-6.318-41.377-19.568-41.377c-13.248,0-19.771,10.396-19.771,40.359c0,31.798,6.317,41.989,19.771,41.989    C297.396,156.501,303.921,145.697,303.921,115.53z"/>
		<path d="M369.344,60.293c-22.02,0-35.271,12.844-35.271,34.659c0,15.902,7.543,25.28,17.736,29.562    c-9.379,4.077-14.883,11.213-14.883,19.776c0,7.515,3.807,12.966,10.807,15.512c-15.261,4.286-16.924,16.499-16.924,21.798    c0,14.878,12.847,25.279,38.941,25.279c26.708,0,41.386-12.231,41.386-33.639c0-17.94-12.412-28.34-34.226-28.34H361.8    c-5.505,0-8.971-2.445-8.971-6.116c0-5.911,5.505-10.193,17.33-10.806c22.426-1.02,33.843-12.437,33.843-32.417    c0-7.968-2.274-13.661-4.805-17.171l12.756,0.002V65.102c-2.451,0.366-8.125,2.487-14.649,2.487    C387.927,67.592,383.004,60.293,369.344,60.293z M371.382,161.417c13.049,0,21.815,3.466,21.815,14.066    c0,12.846-8.156,18.35-23.038,18.35c-14.682,0-21.815-5.927-21.815-15.509c0-7.242,3.76-16.907,19.175-16.907H371.382z     M368.936,116.155c-10.397,0-16.923-7.34-16.923-21.406c0-16.106,6.117-21.815,17.127-21.815c10.806,0,16.718,5.913,16.718,21.203    C385.857,109.836,379.742,116.155,368.936,116.155z"/>
		<path d="M423.354,63.35l15.9-2.446c0.814,2.446,1.631,6.319,1.834,12.842c7.135-7.949,16.104-13.453,27.721-13.453    c16.309,0,25.48,9.783,25.48,27.108v80.515h-18.957V92.701c0-12.841-4.076-16.918-12.842-16.918c-6.93,0-14.879,3.873-20.18,9.988    v82.145h-18.957V63.35L423.354,63.35z"/>
		<path d="M507.647,34.609c0-6.115,4.484-10.803,10.805-10.803c6.113,0,10.803,4.688,10.803,10.803    c0,5.911-4.689,10.804-10.803,10.804C512.131,45.413,507.647,40.52,507.647,34.609z M508.667,62.942l18.957-2.039v107.013h-18.957    V62.942L508.667,62.942z"/>
		<path d="M569.686,33.92v29.818h19.977l-1.312,14.657h-18.664v64.857c0,9.782,2.242,12.638,9.58,12.638    c3.873,0,7.338-1.224,9.58-2.242l2.447,13.045c-5.301,2.445-10.805,3.668-17.326,3.668c-15.695,0-23.033-7.338-23.033-23.848    V78.395h-13.48l5.395-14.657h8.086V40.743L569.686,33.92z"/>
		<path d="M593.344,115.53c0-35.059,14.473-55.237,38.729-55.237c23.85,0,35.672,15.898,35.672,52.996v7.134h-55.035    c0.611,25.888,7.744,35.264,24.053,35.264c9.375,0,15.898-4.28,21.605-9.173l7.949,12.026c-8.357,7.338-18.346,11.82-31.594,11.82    C607.206,170.36,593.344,150.591,593.344,115.53z M648.788,107.582c0.203-26.091-5.301-33.633-17.121-33.633    c-11.416,0-18.143,9.173-18.957,33.633H648.788z"/>
		<path d="M737.249,82.715c-5.504-4.484-10.191-7.338-17.734-7.338c-15.082,0-22.42,10.396-22.42,39.136    c0,30.779,7.133,40.97,22.217,40.97c8.357,0,12.842-3.262,18.346-8.152l6.521,12.842c-6.93,6.114-15.287,10.189-27.518,10.189    c-26.904,0-39.543-19.771-39.543-55.034c0-35.467,13.859-55.034,40.766-55.034c10.197,0,18.643,3.498,24.529,8.225L737.249,82.715    z"/>
		<path d="M782.475,33.92v29.818h19.975l-1.312,14.657h-18.662v64.857c0,9.782,2.242,12.638,9.58,12.638    c3.871,0,7.338-1.224,9.58-2.242l2.445,13.045c-5.299,2.445-10.805,3.668-17.324,3.668c-15.695,0-23.035-7.338-23.035-23.848    V78.395h-13.48l5.395-14.657h8.088V40.743L782.475,33.92z"/>
	</g>
	<path id="Cognitect_Icon" d="M118.043,138.119l-93.042,33.864V58.51l93.042,33.864V9.645c0-0.841-0.525-1.592-1.315-1.879   l-21-7.645c-0.614-0.224-1.297-0.135-1.832,0.239c-0.534,0.375-0.853,0.986-0.853,1.64v54.67L2.684,23.783   c-0.612-0.221-1.297-0.132-1.831,0.241C0.319,24.399,0,25.01,0,25.664V204.83c0,0.651,0.318,1.264,0.853,1.639   c0.534,0.374,1.219,0.465,1.831,0.24l90.358-32.888v54.669c0,0.652,0.318,1.265,0.853,1.64c0.341,0.237,0.742,0.36,1.147,0.36   c0.23,0,0.462-0.04,0.684-0.12l21-7.643c0.79-0.288,1.316-1.039,1.316-1.88L118.043,138.119L118.043,138.119z"/>
</g>
<g id="Cognitect_Logo_Guides">
</g>
</svg>